<?xml version="1.0" standalone="no"?>
<!DOCTYPE svg PUBLIC "-//W3C//DTD SVG 20010904//EN"
 "http://www.w3.org/TR/2001/REC-SVG-20010904/DTD/svg10.dtd">
<svg version="1.0" xmlns="http://www.w3.org/2000/svg"
 width="559.000000pt" height="559.000000pt" viewBox="0 0 559.000000 559.000000"
 preserveAspectRatio="xMidYMid meet">
<metadata>
Created by potrace 1.11, written by Peter Selinger 2001-2013
</metadata>
<g transform="translate(0.000000,559.000000) scale(0.100000,-0.100000)"
fill="#000000" stroke="none">
<path d="M450 4823 c-58 -10 -91 -26 -124 -64 -33 -35 -36 -45 -36 -98 0 -72
26 -114 89 -148 52 -27 158 -32 212 -9 112 47 139 177 54 261 -33 33 -52 44
-100 53 -32 7 -61 11 -64 11 -3 -1 -17 -4 -31 -6z m105 -44 c21 -6 54 -26 72
-44 28 -28 33 -40 33 -78 0 -62 -34 -102 -105 -123 -144 -41 -278 64 -221 175
35 67 126 96 221 70z"/>
<path d="M5015 4616 c-57 -25 -80 -61 -80 -124 0 -104 73 -162 203 -162 126 0
202 62 202 165 0 61 -16 115 -35 115 -10 0 -12 -18 -8 -78 5 -76 5 -80 -24
-111 -27 -31 -115 -66 -135 -54 -5 2 -8 62 -8 134 l0 129 -42 0 c-24 -1 -56
-7 -73 -14z m85 -136 c0 -92 -2 -110 -15 -110 -27 0 -94 39 -106 61 -14 28
-14 81 1 109 13 24 62 49 98 50 21 0 22 -2 22 -110z"/>
<path d="M2747 4463 c-11 -10 -8 -41 4 -49 16 -10 29 9 23 34 -6 22 -15 27
-27 15z"/>
<path d="M650 4410 l0 -30 -154 0 c-140 0 -156 -2 -180 -21 -21 -17 -26 -29
-26 -65 0 -32 4 -44 15 -44 10 0 15 11 15 35 0 24 6 37 19 45 11 5 84 10 165
10 l145 0 3 -47 c2 -35 7 -48 18 -48 11 0 16 13 18 48 l3 47 40 0 c33 0 40 3
37 18 -2 12 -14 18 -41 20 -34 3 -37 6 -37 33 0 22 -5 29 -20 29 -16 0 -20 -7
-20 -30z"/>
<path d="M2746 4328 c-5 -26 -6 -55 -2 -63 5 -13 -65 -281 -75 -289 -2 -2 -30
-22 -63 -46 l-59 -43 32 -24 32 -25 -3 -131 c-2 -94 -6 -134 -16 -144 -8 -7
-12 -22 -9 -33 3 -11 -1 -21 -9 -24 -9 -3 -14 2 -14 14 0 17 -7 20 -50 20
l-50 0 -47 -72 c-44 -68 -45 -72 -27 -85 15 -11 19 -28 20 -83 1 -39 -3 -73
-8 -76 -5 -3 -5 -11 1 -18 8 -9 3 -32 -16 -80 -26 -64 -30 -69 -84 -97 -68
-34 -73 -40 -54 -65 27 -35 18 -62 -30 -96 l-45 -32 31 -20 c27 -19 30 -25 26
-63 -3 -29 0 -46 9 -54 10 -8 14 -39 14 -114 0 -99 -1 -104 -25 -123 -15 -12
-21 -23 -15 -27 5 -3 10 -24 10 -45 0 -44 -1 -45 -119 -97 -87 -38 -91 -39
-91 -14 0 26 -23 33 -49 15 -13 -10 -21 -26 -21 -45 0 -17 -4 -28 -9 -24 -5 3
-107 -42 -225 -100 -119 -58 -225 -105 -235 -105 -38 0 -177 32 -198 46 -20
13 -24 12 -36 -8 -8 -13 -36 -80 -62 -150 -47 -123 -49 -127 -82 -133 -24 -4
-33 -11 -33 -26 0 -15 -5 -19 -17 -15 -10 2 -76 10 -148 16 -71 7 -142 18
-156 25 -26 12 -27 11 -52 -44 -13 -31 -32 -82 -41 -113 -9 -32 -21 -58 -27
-58 -6 0 -9 -9 -6 -20 3 -10 -1 -24 -9 -31 -9 -7 -14 -31 -14 -65 0 -50 -2
-56 -32 -75 -29 -17 -43 -19 -116 -13 -68 5 -82 4 -82 -8 0 -28 -32 -78 -66
-105 -24 -18 -34 -32 -31 -45 4 -15 -1 -18 -35 -18 -24 0 -49 -8 -64 -19 -23
-18 -28 -18 -59 -5 l-35 14 0 -585 0 -585 870 0 869 0 158 46 c87 25 265 77
396 115 l238 70 122 -30 c67 -17 278 -68 469 -116 l347 -85 996 0 995 0 0 948
0 948 -112 -14 c-93 -12 -116 -18 -134 -37 -15 -16 -38 -24 -80 -30 -32 -4
-111 -15 -174 -26 -63 -10 -116 -19 -117 -19 -1 0 -4 18 -8 40 -4 22 -10 40
-13 40 -19 -1 -31 -19 -34 -50 l-3 -35 -133 -20 c-73 -12 -135 -19 -137 -16
-3 2 -5 17 -5 32 0 34 -7 39 -42 32 -23 -4 -27 -11 -30 -42 l-3 -36 -62 -8
-63 -9 0 -51 c0 -70 -7 -79 -50 -67 -60 17 -70 14 -70 -24 0 -18 -7 -39 -15
-46 -19 -16 -19 -27 1 -47 14 -14 14 -17 1 -25 -9 -5 -18 -31 -22 -69 -9 -73
-25 -61 -25 17 0 43 -3 53 -20 57 -19 5 -20 0 -21 -86 -2 -83 -2 -87 -9 -42
-5 28 -9 88 -9 135 -1 53 -5 79 -10 70 -5 -8 -5 -58 0 -110 9 -109 3 -170 -17
-170 -10 0 -14 12 -13 43 l2 42 7 -40 6 -40 5 40 c6 63 -9 207 -23 217 -7 4
-23 8 -35 8 -34 0 -28 -27 7 -35 30 -7 30 -7 28 -73 l-2 -67 -3 61 c-3 52 -7
63 -24 67 -20 5 -20 3 -13 -96 4 -56 7 -110 6 -119 -1 -14 7 -18 34 -18 20 0
34 -5 34 -12 0 -7 3 -23 6 -35 6 -21 3 -23 -27 -23 -54 1 -69 19 -69 82 0 46
-3 57 -19 61 -17 4 -18 9 -10 48 9 37 7 45 -11 63 l-20 20 0 -52 c0 -78 -16
-55 -24 34 -3 43 -7 79 -9 80 -1 1 -16 4 -32 6 -29 3 -30 1 -36 -42 -4 -33 -6
-37 -8 -15 -2 42 -21 70 -21 33 0 -16 -5 -28 -10 -28 -6 0 -10 -33 -9 -82 1
-65 -2 -84 -15 -94 -15 -11 -15 -12 -1 -18 19 -7 17 -57 -1 -63 -19 -6 -23 45
-33 367 -16 493 -16 499 5 514 14 11 24 11 48 1 40 -16 65 -24 71 -25 13 0
105 -51 104 -58 -3 -19 2 -23 15 -13 14 12 68 -2 121 -31 11 -6 33 -15 50 -19
16 -4 55 -17 85 -28 30 -12 68 -21 85 -20 19 0 -30 22 -139 61 -94 34 -165 63
-158 66 28 9 10 24 -23 19 -20 -3 -33 -2 -31 2 3 4 -43 24 -102 45 -112 39
-144 59 -115 70 9 4 21 1 26 -6 6 -9 7 -8 3 4 -4 13 8 24 45 45 40 22 49 32
45 48 -3 11 -6 32 -6 48 0 45 -17 30 -24 -21 -6 -45 -9 -50 -41 -59 -30 -10
-36 -8 -49 11 l-15 21 0 -22 c-1 -31 -11 -34 -62 -19 -36 11 -45 18 -47 39 -3
22 -11 29 -45 37 -23 6 -49 13 -58 16 -9 2 -19 -2 -22 -10 -5 -13 -16 -12 -72
9 -79 30 -105 32 -50 3 22 -11 42 -24 45 -28 3 -4 44 -20 92 -34 48 -15 88
-32 90 -38 2 -5 17 -11 33 -12 46 -4 75 -16 75 -31 0 -24 -14 -24 -83 0 -37
13 -67 20 -67 14 0 -5 7 -9 15 -9 8 0 15 -5 15 -10 0 -6 3 -9 8 -8 24 5 65
-18 79 -46 16 -31 27 -212 23 -400 -1 -47 3 -71 12 -77 10 -7 10 -11 0 -21 -6
-6 -13 -28 -14 -47 l-1 -36 -4 32 c-4 33 -5 34 -75 48 -13 2 -18 -3 -18 -22 0
-13 4 -22 9 -19 5 3 23 3 40 0 l31 -6 1 -87 c0 -47 4 -104 8 -126 7 -33 9 -20
11 65 l3 105 8 -150 c4 -82 6 -152 4 -154 -7 -6 -390 20 -415 29 -14 5 -101
14 -193 20 -93 6 -175 14 -183 17 -10 4 -14 23 -14 70 0 57 2 64 15 53 13 -11
15 6 12 141 l-2 154 35 -2 c19 -2 50 -5 68 -8 l32 -6 0 -149 0 -149 33 -5 c17
-3 43 -5 57 -5 14 1 42 -2 63 -6 37 -8 37 -7 38 26 l2 34 10 -37 c6 -21 13
-38 17 -38 4 0 6 62 6 138 l-1 137 30 -3 c17 -2 33 -7 36 -10 4 -4 9 -65 12
-137 4 -71 6 -131 7 -131 0 -1 9 -4 20 -7 19 -5 20 0 20 142 0 173 -2 177 -90
183 -59 3 -55 7 -59 -57 -2 -32 -17 2 -24 56 l-6 47 55 21 56 21 39 -31 c39
-31 40 -31 78 -16 38 15 39 15 75 -15 37 -30 38 -30 77 -15 22 9 41 11 45 6
11 -19 25 -8 22 18 -3 25 -9 29 -73 45 -38 9 -70 17 -70 18 0 1 -16 3 -35 6
-19 2 -46 8 -60 13 -14 6 -62 17 -107 27 -46 9 -88 23 -94 30 -16 20 -14 19
220 -36 116 -27 216 -50 223 -49 30 1 -39 22 -230 68 -112 28 -209 54 -216 60
-6 5 -30 14 -51 19 -22 5 -137 35 -256 66 -119 31 -219 56 -222 56 -6 0 -17
-83 -19 -135 -3 -118 5 -444 11 -453 8 -13 102 -32 155 -32 l28 0 -5 173 c-3
94 -8 184 -12 198 -7 25 -4 27 71 47 l78 22 36 -25 c96 -69 108 -89 17 -31
l-54 35 -52 -16 c-29 -8 -50 -18 -46 -21 10 -10 145 -40 139 -30 -3 4 -19 15
-36 24 -16 8 -28 18 -25 20 8 8 60 -22 79 -45 17 -20 17 -21 0 -20 -9 0 -50 6
-89 13 l-73 13 -6 -33 c-5 -29 -11 -192 -14 -388 l-1 -59 -61 7 c-34 3 -78 6
-98 6 l-38 0 -7 127 c-4 71 -8 216 -7 323 2 684 1 755 -11 763 -7 5 -3 6 10 2
26 -7 42 14 21 26 -14 8 -16 49 -17 290 -1 190 2 285 9 294 8 9 8 15 0 20 -13
8 -14 175 -1 175 19 0 81 -42 75 -51 -3 -5 3 -9 13 -9 10 0 29 -9 43 -20 14
-11 28 -20 33 -20 4 0 7 74 7 165 0 103 -4 165 -10 165 -5 0 -10 9 -10 19 0
11 -4 22 -9 26 -6 3 -10 65 -10 139 -1 130 0 133 25 157 l25 24 -56 50 -57 50
-24 125 c-14 69 -29 157 -33 195 l-7 70 -8 -47z m-53 -533 c20 -14 37 -29 37
-34 0 -14 -59 -91 -70 -91 -15 0 -12 18 5 27 19 11 9 73 -11 73 -8 0 -14 10
-14 25 0 31 6 31 53 0z m162 -25 c4 -30 0 -50 -10 -67 -9 -13 -13 -28 -10 -33
3 -6 -1 -10 -9 -10 -9 0 -16 -7 -16 -16 0 -22 -34 -13 -38 10 -3 13 0 16 10
11 10 -6 11 -5 1 6 -18 19 -16 39 4 39 15 0 15 1 0 18 -10 10 -17 23 -17 29 0
9 71 64 77 59 1 -1 5 -22 8 -46z m-196 -61 c-12 -23 -34 -26 -25 -3 3 9 6 20
6 25 0 4 7 6 15 3 11 -5 12 -11 4 -25z m59 -46 c-6 -7 -7 -13 -3 -13 4 0 -9
-11 -29 -25 -46 -31 -48 -31 -44 3 2 19 9 28 26 30 12 2 22 9 22 17 0 17 23
25 32 11 4 -6 2 -16 -4 -23z m142 -58 c0 -19 -11 -19 -36 0 -18 14 -18 14 9
15 17 0 27 -5 27 -15z m-208 -123 c34 -20 45 -31 39 -41 -5 -8 -13 -11 -19 -7
-6 3 -8 -2 -5 -12 2 -11 -3 -26 -11 -35 -9 -8 -16 -23 -16 -33 0 -38 -34 -120
-56 -137 l-24 -18 0 145 c0 128 2 146 18 155 23 14 21 14 74 -17z m384 -1573
c92 -22 172 -43 178 -45 14 -5 14 -55 0 -52 -5 2 -7 10 -6 20 2 12 -8 19 -40
26 -100 23 -294 75 -308 83 -28 16 7 9 176 -32z m1234 -414 c0 -8 -7 -15 -16
-15 -14 0 -14 3 -4 15 7 8 14 15 16 15 2 0 4 -7 4 -15z m-381 -262 c0 -25 -1
-25 -8 -8 -5 11 -7 23 -4 28 8 14 13 7 12 -20z m137 -30 c-11 -11 -19 6 -11
24 8 17 8 17 12 0 3 -10 2 -21 -1 -24z m-837 -13 c51 0 53 -1 47 -24 -4 -16 0
-29 13 -40 18 -17 20 -17 40 3 29 29 33 27 25 -15 -6 -31 -4 -36 15 -41 14 -4
20 -11 17 -20 -3 -8 -6 -19 -6 -24 0 -5 -7 -9 -15 -9 -8 0 -15 9 -15 19 0 11
-4 22 -9 25 -5 3 -8 14 -6 24 1 9 0 11 -2 5 -5 -15 -15 -16 -28 -4 -6 6 -30
11 -55 13 -38 3 -46 7 -48 26 -3 19 -9 22 -55 23 -38 0 -47 3 -32 9 17 7 15 9
-12 9 -39 1 -63 10 -63 23 0 6 25 8 68 4 37 -3 91 -6 121 -6z m201 -75 c8 0
20 11 25 24 10 23 11 23 119 16 86 -5 116 -11 138 -26 30 -22 38 -59 12 -59
-15 0 -15 -18 -9 -175 l7 -175 -29 0 c-17 0 -36 9 -48 23 -17 19 -19 40 -21
172 l-2 150 7 -140 c6 -114 10 -145 26 -170 l20 -29 3 94 c2 52 0 127 -3 167
-7 78 -12 83 -84 83 l-34 0 7 -179 8 -179 -49 -4 c-27 -2 -51 0 -55 6 -4 6 -8
54 -8 106 0 52 -3 132 -7 178 l-6 82 -33 0 c-29 0 -34 3 -34 24 0 13 3 32 6
41 6 14 8 13 18 -7 6 -13 18 -23 26 -23z m368 -147 c17 -17 15 -31 -2 -25 -8
3 -17 1 -20 -6 -2 -7 -5 0 -5 16 -1 29 8 34 27 15z m-16 -92 c-3 -5 5 -7 16
-4 17 5 22 2 22 -12 0 -11 -5 -22 -10 -25 -17 -11 -40 22 -39 57 0 27 2 29 8
13 5 -11 6 -24 3 -29z m-392 -50 c0 -46 3 -91 6 -100 3 -9 1 -16 -5 -16 -6 0
-12 20 -13 48 -1 47 -1 47 -5 7 -7 -62 -18 -60 -21 3 -3 82 6 142 24 142 11 0
14 -18 14 -84z"/>
<path d="M2570 3350 c0 -100 2 -118 14 -114 16 6 46 85 46 120 0 12 -10 29
-22 38 -23 16 -23 16 9 11 31 -6 53 8 33 20 -6 4 -8 10 -5 15 3 5 0 12 -6 16
-8 4 -9 3 -5 -4 10 -16 -5 -14 -28 3 -11 8 -23 15 -28 15 -4 0 -8 -54 -8 -120z"/>
<path d="M2657 3459 c7 -7 15 -10 18 -7 3 3 -2 9 -12 12 -14 6 -15 5 -6 -5z"/>
<path d="M3173 1173 c9 -2 25 -2 35 0 9 3 1 5 -18 5 -19 0 -27 -2 -17 -5z"/>
<path d="M3180 1120 c0 -5 14 -10 31 -10 17 0 28 4 24 10 -3 6 -17 10 -31 10
-13 0 -24 -4 -24 -10z"/>
<path d="M3423 1118 c-7 -8 -7 -38 -2 -83 4 -38 8 -125 8 -192 l1 -123 30 0
c29 0 30 2 30 45 0 38 -3 45 -20 45 -17 0 -20 7 -20 40 0 28 4 40 14 40 20 0
21 9 18 96 -3 65 -6 77 -23 81 -40 11 -19 26 27 19 26 -3 73 -6 105 -6 55 0
58 -1 62 -27 l4 -28 2 28 c0 17 7 27 17 27 27 0 9 24 -23 31 -17 3 -74 9 -126
13 -72 5 -96 4 -104 -6z"/>
<path d="M3350 1105 c0 -8 7 -15 16 -15 14 0 14 3 4 15 -7 8 -14 15 -16 15 -2
0 -4 -7 -4 -15z"/>
<path d="M3481 834 c0 -11 3 -14 6 -6 3 7 2 16 -1 19 -3 4 -6 -2 -5 -13z"/>
<path d="M3331 824 c0 -11 3 -14 6 -6 3 7 2 16 -1 19 -3 4 -6 -2 -5 -13z"/>
<path d="M4947 4263 c-12 -21 -18 -79 -12 -120 9 -63 72 -125 143 -143 142
-34 262 43 262 166 0 64 -14 104 -36 104 -14 0 -15 -6 -8 -32 20 -84 4 -135
-60 -182 -21 -17 -42 -21 -94 -21 -116 1 -176 54 -169 150 2 28 5 56 8 64 4
16 -26 28 -34 14z"/>
<path d="M410 4189 c-47 -15 -87 -45 -105 -79 -17 -33 -20 -142 -5 -171 14
-25 45 -26 35 -1 -16 37 -17 108 -2 143 16 40 81 79 130 79 l26 0 3 -132 3
-133 45 3 c94 6 153 59 153 135 0 93 -70 154 -185 162 -35 2 -79 0 -98 -6z
m192 -55 c38 -19 58 -52 58 -94 0 -58 -28 -87 -105 -106 l-25 -6 0 117 c0 130
-2 127 72 89z"/>
<path d="M4804 3896 c-10 -26 4 -48 28 -44 17 2 23 10 23 28 0 18 -6 26 -23
28 -13 2 -25 -3 -28 -12z"/>
<path d="M4940 3880 c0 -19 7 -20 184 -20 192 0 216 3 216 26 0 12 -36 14
-200 14 -193 0 -200 -1 -200 -20z"/>
<path d="M486 3780 c-104 -38 -191 -71 -193 -74 -17 -17 25 -40 184 -98 98
-37 186 -69 196 -73 13 -5 17 -2 17 12 0 17 -27 30 -162 77 -90 32 -166 61
-170 64 -4 4 69 33 163 66 139 48 169 61 169 77 0 10 -3 19 -7 18 -5 0 -93
-32 -197 -69z"/>
<path d="M5026 3740 c-89 -27 -120 -141 -56 -210 l27 -29 -26 -3 c-15 -2 -27
-10 -29 -20 -3 -17 11 -18 197 -18 194 0 201 1 201 20 0 19 -7 20 -135 20
-148 0 -176 7 -214 56 -38 48 -21 108 39 139 22 11 64 15 170 15 133 0 140 1
140 20 0 19 -6 20 -142 19 -79 0 -156 -5 -172 -9z"/>
<path d="M2944 3520 c-13 -5 -5 -14 37 -41 73 -46 76 -47 46 -7 -21 27 -24 37
-14 47 9 9 5 11 -20 9 -17 -1 -39 -5 -49 -8z"/>
<path d="M788 3438 c-27 -16 -48 -36 -48 -44 0 -15 86 -73 108 -74 24 0 11 20
-30 46 l-42 27 42 24 c23 14 42 31 42 39 0 21 -20 16 -72 -18z"/>
<path d="M2930 3338 l1 -133 47 -31 c26 -17 59 -36 75 -42 l27 -12 0 90 c0 77
-3 91 -19 99 -21 12 -55 60 -47 68 2 3 19 -5 35 -17 30 -21 31 -21 31 -2 0 25
-109 112 -140 112 -6 0 -10 -48 -10 -132z m45 70 c24 -11 34 -28 16 -28 -11 0
-59 39 -49 40 4 0 19 -5 33 -12z m51 -93 c24 -51 24 -57 11 -84 -14 -28 -13
-31 9 -52 38 -36 21 -33 -42 7 -32 21 -53 39 -46 42 7 2 10 8 7 13 -12 18 -15
79 -4 79 5 0 7 5 4 11 -6 8 19 37 33 39 2 0 14 -25 28 -55z"/>
<path d="M2977 3316 c-3 -8 -3 -24 0 -37 6 -22 7 -22 14 -3 11 27 11 54 0 54
-5 0 -11 -6 -14 -14z"/>
<path d="M290 3440 c0 -19 7 -20 144 -20 132 0 146 -2 177 -23 20 -13 38 -36
44 -55 6 -21 15 -32 25 -30 25 6 12 50 -25 86 l-35 32 35 0 c24 0 35 5 35 15
0 13 -29 15 -200 15 -193 0 -200 -1 -200 -20z"/>
<path d="M3070 3432 c0 -12 19 -26 26 -19 2 2 -2 10 -11 17 -9 8 -15 8 -15 2z"/>
<path d="M5038 3343 c-270 -3 -278 -4 -278 -23 0 -19 7 -20 116 -20 l116 0
-26 -31 c-30 -36 -35 -102 -11 -149 38 -73 149 -113 251 -91 138 31 191 170
98 256 l-27 25 32 0 c24 0 31 4 31 20 0 11 -6 19 -12 18 -7 -2 -138 -4 -290
-5z m176 -44 c60 -17 96 -58 96 -111 -1 -80 -58 -123 -164 -122 -83 0 -127 19
-156 67 -24 39 -25 70 -4 106 36 61 133 86 228 60z"/>
<path d="M410 3269 c-101 -31 -141 -110 -117 -231 6 -29 13 -38 28 -38 17 0
19 4 12 23 -4 12 -8 48 -8 79 0 49 4 61 29 87 28 29 79 51 118 51 15 0 18 -15
20 -132 l3 -133 45 3 c55 3 107 28 133 63 25 34 25 109 0 151 -37 64 -174 104
-263 77z m198 -58 c32 -17 52 -52 52 -91 0 -45 -23 -78 -66 -96 -64 -27 -64
-26 -64 100 l0 115 29 -9 c15 -4 38 -13 49 -19z"/>
<path d="M2750 3223 c0 -41 4 -50 25 -60 25 -11 25 -11 25 40 0 37 -3 48 -10
37 -8 -12 -10 -11 -10 8 0 13 -6 22 -15 22 -11 0 -15 -12 -15 -47z"/>
<path d="M2827 3213 c-13 -13 -7 -53 8 -53 8 0 15 -8 15 -18 0 -11 11 -24 25
-30 25 -11 25 -11 25 31 0 37 -4 45 -29 60 -33 19 -35 20 -44 10z"/>
<path d="M2913 3135 c0 -22 2 -30 4 -17 2 12 2 30 0 40 -3 9 -5 -1 -4 -23z"/>
<path d="M2930 3126 c0 -32 5 -48 15 -52 8 -4 12 -11 8 -17 -3 -6 -1 -7 5 -3
6 4 54 -16 106 -44 l95 -51 -1 41 c0 37 -5 44 -40 67 -33 22 -41 24 -49 12 -7
-12 -9 -12 -9 2 0 9 -22 30 -48 47 -79 51 -82 51 -82 -2z"/>
<path d="M2750 3135 c0 -8 4 -15 8 -15 4 0 49 -25 100 -55 118 -70 332 -176
332 -164 0 5 -18 18 -40 29 -22 11 -39 25 -37 31 1 7 -5 14 -13 16 -13 4 -13
3 0 -6 8 -6 10 -11 4 -11 -23 0 -194 102 -188 112 4 6 2 8 -3 5 -6 -4 -42 11
-79 33 -76 44 -84 47 -84 25z"/>
<path d="M2750 2891 c0 -179 3 -195 35 -196 14 0 76 -34 97 -52 10 -9 24 -13
31 -10 8 3 20 0 26 -6 8 -8 11 17 11 96 0 88 3 107 15 107 8 0 15 -7 15 -15 0
-8 5 -15 10 -15 6 0 10 -28 11 -62 0 -45 3 -57 9 -43 5 11 9 36 9 56 2 85 40
40 41 -48 0 -34 5 -65 10 -68 6 -4 10 -12 9 -18 -5 -40 3 -58 28 -68 15 -6 30
-15 34 -20 3 -5 19 -11 35 -12 16 -1 31 -5 34 -9 3 -3 16 -9 30 -13 l25 -6 0
133 c-1 118 -3 138 -23 176 -21 40 -42 55 -42 30 0 -6 -14 3 -31 20 -17 18
-35 32 -39 32 -5 0 -59 28 -122 63 -62 35 -128 69 -146 75 -18 6 -45 20 -59
32 -51 40 -53 36 -53 -159z m42 69 c-8 -21 -9 -22 -16 -5 -4 11 -2 22 6 26 17
11 20 6 10 -21z m91 -24 c41 -16 47 -22 47 -48 0 -17 -4 -27 -10 -23 -5 3 -10
12 -10 20 0 8 -20 26 -45 41 -25 14 -45 28 -45 31 0 2 3 3 8 1 4 -1 28 -11 55
-22z m-7 -50 c29 -22 13 -26 -21 -5 -17 11 -23 19 -14 19 8 0 24 -6 35 -14z
m104 -6 c0 -11 -4 -20 -10 -20 -5 0 -10 9 -10 20 0 11 5 20 10 20 6 0 10 -9
10 -20z m58 -37 c2 -13 -2 -23 -8 -23 -7 0 -9 7 -6 16 3 8 2 13 -3 10 -5 -3
-15 1 -22 10 -11 14 -10 15 11 12 17 -2 26 -10 28 -25z m42 -7 c0 -8 -4 -17
-9 -21 -12 -7 -24 12 -16 25 9 15 25 12 25 -4z m83 -35 c39 -17 44 -22 40 -45
-3 -14 -10 -26 -15 -26 -6 0 -8 11 -5 25 2 14 2 23 -1 21 -5 -6 -82 31 -82 39
0 9 18 5 63 -14z m-14 -45 c13 -7 20 -16 15 -19 -5 -3 -21 3 -34 14 -29 21
-17 25 19 5z"/>
<path d="M3171 3043 c7 -10 15 -20 16 -22 2 -2 3 3 3 11 0 9 -7 19 -16 22 -15
6 -15 4 -3 -11z"/>
<path d="M3047 2999 c7 -7 15 -10 18 -7 3 3 -2 9 -12 12 -14 6 -15 5 -6 -5z"/>
<path d="M3170 2979 c0 -17 4 -28 10 -24 6 3 10 17 10 31 0 13 -4 24 -10 24
-5 0 -10 -14 -10 -31z"/>
<path d="M3200 2973 c0 -21 19 -53 31 -53 18 0 6 63 -13 66 -10 1 -18 -4 -18
-13z"/>
<path d="M3164 2935 c22 -17 40 -20 32 -6 -3 5 -16 11 -28 14 -22 6 -22 5 -4
-8z"/>
<path d="M3070 2936 c0 -7 93 -57 98 -52 2 3 -19 16 -47 30 -28 15 -51 24 -51
22z"/>
<path d="M5023 2929 c-49 -14 -83 -62 -83 -115 0 -51 23 -104 45 -104 18 0 18
-2 0 51 -27 75 14 139 90 139 22 0 25 -4 25 -37 0 -94 46 -166 113 -178 50
-10 84 0 114 33 22 23 24 34 21 80 -3 35 -12 60 -26 75 -27 29 -28 37 -2 37
11 0 20 7 20 15 0 13 -22 15 -142 14 -79 0 -157 -5 -175 -10z m244 -49 c75
-46 56 -160 -27 -160 -46 0 -79 28 -95 82 -8 28 -15 62 -15 75 0 21 4 23 53
23 34 0 63 -7 84 -20z"/>
<path d="M3210 2893 c0 -5 20 -19 45 -31 25 -12 45 -18 45 -14 0 7 -30 25 -82
50 -5 2 -8 0 -8 -5z"/>
<path d="M290 2865 c0 -13 21 -15 130 -15 144 0 183 -10 218 -55 29 -37 28
-86 -2 -122 l-24 -28 -158 -5 c-141 -4 -159 -7 -162 -22 -3 -17 9 -18 142 -18
221 0 262 25 257 152 -1 15 -15 43 -32 63 l-31 35 31 0 c21 0 31 5 31 15 0 13
-29 15 -200 15 -171 0 -200 -2 -200 -15z"/>
<path d="M2964 2727 c2 -44 8 -83 15 -90 10 -9 11 2 5 53 -11 103 -24 127 -20
37z"/>
<path d="M3026 2653 c-7 -72 -4 -93 15 -93 10 0 11 55 0 120 l-7 45 -8 -72z"/>
<path d="M2750 2622 l0 -38 78 -30 77 -31 3 31 c2 17 0 32 -5 33 -5 2 -34 19
-63 38 -72 47 -90 46 -90 -3z"/>
<path d="M4940 2615 c0 -15 14 -38 35 -60 l36 -35 -31 0 c-22 0 -30 -5 -30
-17 0 -17 14 -18 197 -13 167 4 198 7 198 20 0 12 -25 16 -147 20 -164 6 -194
17 -213 78 -11 40 -45 45 -45 7z"/>
<path d="M2922 2580 c0 -19 2 -27 5 -17 2 9 2 25 0 35 -3 9 -5 1 -5 -18z"/>
<path d="M2942 2543 c2 -27 8 -39 21 -41 13 -3 17 3 17 25 0 28 -15 53 -33 53
-4 0 -7 -17 -5 -37z"/>
<path d="M2756 2544 c-7 -17 -21 -10 194 -94 375 -146 415 -163 425 -175 5 -7
53 -27 105 -45 52 -18 99 -37 105 -42 5 -4 18 -8 29 -8 34 0 5 16 -74 41 -41
13 -77 26 -80 30 -3 3 -21 14 -40 24 -19 10 -39 24 -45 31 -5 8 -120 57 -255
110 -135 53 -271 107 -302 119 -46 19 -58 20 -62 9z"/>
<path d="M3019 2513 c4 -21 11 -36 16 -33 13 7 8 42 -9 58 -11 11 -12 7 -7
-25z"/>
<path d="M3092 2488 c3 -39 6 -42 45 -57 23 -8 44 -13 47 -10 14 14 -10 61
-45 83 -21 14 -41 26 -44 26 -4 0 -5 -19 -3 -42z"/>
<path d="M322 2485 c-49 -41 -49 -120 -2 -170 l21 -23 -25 -6 c-14 -3 -26 -12
-26 -19 0 -10 35 -12 158 -9 169 3 202 11 227 48 31 47 14 174 -22 174 -11 0
-13 -6 -8 -22 4 -13 10 -41 12 -64 6 -52 -25 -92 -78 -100 -34 -6 -36 -5 -43
26 -3 18 -6 42 -6 53 0 35 -38 102 -69 120 -43 25 -103 22 -139 -8z m137 -36
c29 -27 41 -60 41 -115 l0 -44 -45 0 c-52 0 -96 19 -119 52 -22 31 -20 84 4
108 27 27 89 27 119 -1z"/>
<path d="M3190 2488 c0 -7 5 -20 10 -28 8 -12 10 -11 10 7 0 12 -4 25 -10 28
-5 3 -10 0 -10 -7z"/>
<path d="M2790 2480 c0 -5 4 -10 9 -10 6 0 13 5 16 10 3 6 -1 10 -9 10 -9 0
-16 -4 -16 -10z"/>
<path d="M2826 2465 c-7 -20 41 -32 57 -15 9 10 8 12 -5 7 -9 -3 -19 0 -22 9
-7 18 -22 18 -30 -1z"/>
<path d="M3218 2442 c-5 -38 4 -52 35 -52 28 0 20 70 -9 81 -20 7 -22 4 -26
-29z"/>
<path d="M2763 2450 c3 -11 1 -20 -4 -20 -6 0 -8 -82 -7 -202 l3 -201 65 -19
c36 -10 75 -17 88 -15 12 2 22 0 22 -4 0 -5 5 -9 10 -9 6 0 9 49 8 133 l-3
132 38 -1 c21 -1 39 -3 42 -5 2 -2 8 -69 13 -149 l10 -145 -1 133 c0 72 2 135
5 138 3 3 21 1 39 -4 l34 -8 5 -139 5 -140 65 -17 c98 -26 100 -26 101 30 l2
47 6 -52 c12 -98 24 -68 19 47 -3 63 -4 120 -1 126 3 8 15 8 42 1 l38 -10 6
-125 c6 -119 12 -141 40 -142 4 0 7 20 7 45 0 51 20 63 21 13 0 -18 4 -42 9
-53 4 -11 5 35 2 103 -5 133 -4 136 53 110 25 -11 25 -13 25 -124 0 -100 2
-114 19 -123 22 -12 31 -5 32 23 0 20 1 20 9 -1 5 -13 11 -23 12 -23 2 0 2 49
0 110 l-3 109 46 -16 c25 -8 49 -13 52 -10 10 10 -7 57 -27 77 -11 11 -19 23
-18 28 1 4 -9 9 -23 12 -23 6 -105 40 -141 60 -23 13 -51 13 -43 0 3 -5 -4
-10 -16 -10 -17 0 -19 3 -10 14 10 12 0 18 -60 37 -39 12 -79 30 -88 39 -14
15 -39 28 -63 35 -5 2 -10 4 -13 5 -3 1 -8 3 -12 4 -5 1 -24 9 -44 18 -20 9
-50 19 -67 23 -18 3 -34 11 -37 16 -4 5 -15 9 -26 9 -10 0 -53 16 -95 35 -42
19 -79 33 -83 31 -4 -3 -29 6 -56 19 -58 30 -59 30 -52 5z m167 -200 c0 -29
-11 -30 -46 -3 -45 34 -43 43 6 31 27 -7 40 -16 40 -28z m279 -79 c21 -13 -5
-24 -29 -11 -11 6 -20 13 -20 15 0 8 34 5 49 -4z m101 -67 c0 -14 -4 -23 -10
-19 -5 3 -10 15 -10 26 0 10 5 19 10 19 6 0 10 -12 10 -26z m154 -30 c12 -5
16 -21 16 -65 0 -73 -16 -78 -22 -7 -4 34 -12 56 -24 65 -15 11 -15 13 -2 13
9 0 23 -3 32 -6z m150 -50 c18 -7 22 -49 6 -59 -5 -3 -10 2 -10 11 0 10 -7 26
-17 36 -16 18 -8 23 21 12z m13 -106 c-3 -8 -6 -5 -6 6 -1 11 2 17 5 13 3 -3
4 -12 1 -19z"/>
<path d="M2895 2250 c3 -5 10 -10 16 -10 5 0 9 5 9 10 0 6 -7 10 -16 10 -8 0
-12 -4 -9 -10z"/>
<path d="M2910 2439 c0 -5 5 -7 10 -4 6 3 10 8 10 11 0 2 -4 4 -10 4 -5 0 -10
-5 -10 -11z"/>
<path d="M2948 2423 c7 -3 16 -2 19 1 4 3 -2 6 -13 5 -11 0 -14 -3 -6 -6z"/>
<path d="M740 2387 c0 -12 88 -88 111 -96 6 -2 9 7 7 20 -2 16 -21 35 -53 56
-55 36 -65 39 -65 20z"/>
<path d="M3186 2331 c-6 -9 35 -24 43 -15 6 5 -18 24 -31 24 -4 0 -9 -4 -12
-9z"/>
<path d="M3250 2310 c0 -5 5 -10 11 -10 5 0 7 5 4 10 -3 6 -8 10 -11 10 -2 0
-4 -4 -4 -10z"/>
<path d="M3310 2281 c0 -6 5 -13 10 -16 6 -3 10 1 10 9 0 9 -4 16 -10 16 -5 0
-10 -4 -10 -9z"/>
<path d="M2983 2223 c-22 -4 -23 -9 -23 -87 0 -50 5 -87 12 -94 9 -9 9 -12 -1
-12 -9 0 -11 -9 -6 -32 9 -40 5 -35 37 -43 26 -7 27 -6 24 32 -2 21 -4 84 -5
141 -1 56 -4 101 -8 101 -5 -1 -18 -4 -30 -6z"/>
<path d="M3090 2190 c0 -7 -7 -10 -15 -6 -14 5 -15 -10 -14 -112 1 -120 8
-142 41 -142 17 0 18 8 16 132 -2 94 -7 133 -15 136 -7 2 -13 -2 -13 -8z"/>
<path d="M3930 2190 c0 -5 5 -10 10 -10 6 0 10 5 10 10 0 6 -4 10 -10 10 -5 0
-10 -4 -10 -10z"/>
<path d="M4227 2135 c-21 -25 -33 -46 -27 -50 11 -7 14 -65 3 -65 -5 0 -33 7
-63 15 -66 18 -77 18 -63 4 18 -18 227 -100 248 -96 18 3 17 5 -7 17 -21 10
-28 21 -28 41 0 21 4 27 15 23 8 -4 15 -3 15 1 0 3 -7 13 -15 21 -8 9 -15 23
-15 32 0 13 2 14 9 4 6 -10 10 -10 20 1 15 19 4 45 -22 49 -12 2 -24 13 -27
25 -5 19 -8 18 -43 -22z"/>
<path d="M3910 2143 c0 -33 17 -37 28 -5 8 24 7 28 -9 28 -13 0 -19 -7 -19
-23z"/>
<path d="M3715 2150 c3 -5 14 -10 23 -10 15 0 15 2 2 10 -20 13 -33 13 -25 0z"/>
<path d="M3870 2140 c-8 -15 -7 -21 8 -29 15 -8 18 -5 20 20 3 33 -12 38 -28
9z"/>
<path d="M3950 2127 c1 -32 14 -56 37 -66 36 -16 38 -9 8 27 -29 35 -33 50 -7
31 14 -11 15 -11 5 1 -16 18 -43 22 -43 7z"/>
<path d="M4009 2119 c-9 -18 -7 -25 10 -40 11 -11 17 -14 11 -8 -5 7 -6 25 -3
40 7 34 -2 38 -18 8z"/>
<path d="M3357 2083 c-16 -4 -17 -16 -15 -116 l3 -111 28 -7 28 -7 -3 120 c-3
122 -6 130 -41 121z"/>
<path d="M3782 1903 l3 -148 28 -3 28 -3 -7 93 c-4 51 -11 99 -17 106 -16 21
-1 25 32 8 16 -9 39 -16 50 -16 17 0 20 -9 26 -87 3 -49 7 -99 8 -112 2 -29
27 -41 28 -14 0 15 2 15 11 -4 15 -32 28 -29 28 7 0 17 5 30 10 30 6 0 10 29
10 66 0 58 2 65 18 60 249 -78 242 -75 243 -104 1 -15 2 -36 3 -47 1 -11 3
-41 4 -67 1 -27 5 -48 10 -48 4 0 5 40 2 90 -3 58 -1 89 5 87 11 -4 12 -5 20
-109 6 -67 9 -78 25 -78 17 0 18 7 13 73 -3 39 -8 94 -12 120 l-6 49 -130 43
c-71 24 -150 48 -175 55 -24 7 -49 18 -55 26 -9 12 -174 74 -197 74 -5 0 -7
-66 -6 -147z m188 -2 c0 -11 -4 -23 -10 -26 -5 -3 -10 3 -10 14 0 10 -6 22
-12 24 -7 3 -3 6 10 6 15 1 22 -5 22 -18z m37 -33 c-3 -8 -6 -5 -6 6 -1 11 2
17 5 13 3 -3 4 -12 1 -19z m-40 -95 c-3 -10 -5 -2 -5 17 0 19 2 27 5 18 2 -10
2 -26 0 -35z"/>
<path d="M3530 2030 c0 -7 -7 -10 -16 -6 -15 6 -16 -4 -10 -101 4 -60 8 -109
9 -109 1 -1 12 -5 25 -9 l23 -7 -3 118 c-2 83 -7 119 -15 122 -7 2 -13 -2 -13
-8z"/>
<path d="M4300 1997 c0 -8 7 -18 16 -21 11 -4 14 -1 12 11 -4 21 -28 30 -28
10z"/>
<path d="M3686 1979 c4 -8 0 -9 -15 -4 -24 7 -25 -1 -15 -128 6 -70 9 -77 28
-77 20 0 21 4 18 110 -2 64 -7 110 -13 110 -6 0 -7 -5 -3 -11z"/>
<path d="M3715 1874 c4 -60 9 -111 11 -113 2 -2 4 43 4 102 0 65 -4 108 -11
113 -8 4 -9 -25 -4 -102z"/>
<path d="M3870 1863 c0 -105 9 -143 33 -143 18 0 19 4 13 61 -3 34 -6 82 -6
105 0 37 -3 44 -20 44 -18 0 -20 -7 -20 -67z"/>
<path d="M4035 1783 c7 -100 10 -113 25 -113 7 0 10 33 8 97 -3 85 -5 98 -21
101 -17 3 -18 -3 -12 -85z"/>
<path d="M4080 1799 c0 -78 9 -129 22 -129 6 0 7 30 3 83 -9 106 -24 134 -25
46z"/>
<path d="M3853 1795 c0 -27 2 -38 4 -22 2 15 2 37 0 50 -2 12 -4 0 -4 -28z"/>
<path d="M4143 1810 c4 -18 7 -63 7 -101 0 -55 3 -69 15 -69 12 0 15 14 14 68
-2 84 -10 124 -28 130 -11 4 -13 -3 -8 -28z"/>
<path d="M4184 1798 c3 -13 6 -53 6 -90 0 -39 4 -68 10 -68 11 0 14 120 4 158
-4 12 -11 22 -16 22 -6 0 -8 -10 -4 -22z"/>
<path d="M4245 1713 c7 -81 17 -115 30 -101 3 2 2 46 -1 96 -5 70 -10 92 -21
92 -12 0 -14 -15 -8 -87z"/>
<path d="M2930 1763 c0 -10 19 -40 21 -33 0 3 2 13 4 23 2 9 -3 17 -11 17 -8
0 -14 -3 -14 -7z"/>
<path d="M3791 1564 c3 -190 8 -274 18 -274 3 0 7 33 9 74 1 41 9 92 16 114
13 36 13 46 -1 81 -15 38 -15 42 3 68 10 15 19 33 19 38 0 6 10 9 21 7 12 -2
24 4 28 13 6 17 -16 29 -78 41 l-37 6 2 -168z"/>
<path d="M3390 1706 c0 -2 8 -10 18 -17 15 -13 16 -12 3 4 -13 16 -21 21 -21
13z"/>
<path d="M3348 1693 c-26 -7 -22 -23 5 -23 14 0 24 6 24 15 0 8 -3 14 -6 14
-3 -1 -14 -3 -23 -6z"/>
<path d="M3920 1681 c0 -23 16 -29 23 -8 3 7 9 0 16 -15 6 -16 17 -28 26 -28
8 0 15 -6 15 -12 1 -7 9 -23 20 -36 16 -19 23 -21 40 -12 16 9 26 7 49 -10 25
-17 33 -18 55 -9 21 10 29 9 44 -4 20 -19 32 -13 32 14 0 19 -13 24 -142 54
-82 19 -98 25 -98 37 0 5 17 6 38 3 36 -6 36 -5 -12 14 -26 11 -61 23 -77 26
-25 6 -29 4 -29 -14z"/>
<path d="M3311 1664 c0 -11 3 -14 6 -6 3 7 2 16 -1 19 -3 4 -6 -2 -5 -13z"/>
<path d="M2994 1658 c-5 -8 3 -290 9 -294 1 -1 26 -5 55 -9 l52 -7 0 146 c0
143 -1 147 -22 155 -45 16 -87 20 -94 9z"/>
<path d="M3515 1656 c-17 -12 -17 -13 7 -19 15 -4 34 -9 45 -13 10 -3 5 2 -10
11 -15 9 -25 20 -22 25 8 14 2 12 -20 -4z"/>
<path d="M3440 1653 c8 -4 20 -13 27 -22 11 -14 12 -14 13 4 0 16 -7 21 -27
22 -16 1 -21 -1 -13 -4z"/>
<path d="M3882 1645 c-13 -7 -30 -21 -37 -32 -20 -29 2 -68 39 -68 34 0 40 19
8 23 -31 5 -23 23 21 47 20 11 37 24 37 28 0 5 -5 5 -10 2 -6 -4 -16 -3 -23 3
-8 5 -21 4 -35 -3z"/>
<path d="M3594 1627 c5 -17 1 -19 -46 -15 l-53 3 -3 -139 c-2 -86 1 -143 8
-150 7 -7 10 32 10 122 l0 132 28 -6 c15 -4 30 -8 33 -10 4 -2 10 -62 14 -134
7 -118 9 -130 26 -130 16 0 19 8 19 47 0 55 11 50 21 -10 6 -37 7 -33 7 28 1
39 -3 88 -7 110 l-9 40 -1 -54 c0 -30 -3 -52 -5 -50 -2 2 -9 51 -15 109 -6 57
-16 109 -23 115 -8 7 -9 5 -4 -8z"/>
<path d="M3667 1626 c-18 -14 -17 -14 2 -21 12 -3 30 -3 42 0 16 5 18 10 8 21
-14 17 -29 17 -52 0z"/>
<path d="M3620 1613 c0 -5 5 -15 10 -23 8 -12 10 -11 10 8 0 12 -4 22 -10 22
-5 0 -10 -3 -10 -7z"/>
<path d="M4218 1598 c5 -5 16 -8 23 -6 8 3 3 7 -10 11 -17 4 -21 3 -13 -5z"/>
<path d="M3895 1590 c-4 -6 8 -13 25 -17 18 -3 27 -9 20 -13 -14 -9 -2 -40 16
-40 25 0 12 51 -18 66 -32 17 -35 17 -43 4z"/>
<path d="M4338 1593 c7 -3 16 -2 19 1 4 3 -2 6 -13 5 -11 0 -14 -3 -6 -6z"/>
<path d="M3371 1582 l-24 -4 7 -126 c3 -69 8 -127 9 -128 1 -1 14 -5 29 -9
l27 -7 -6 134 c-3 73 -8 135 -12 139 -3 3 -17 3 -30 1z"/>
<path d="M4000 1561 c12 -9 12 -11 -3 -17 -9 -3 -17 -12 -17 -20 0 -8 -5 -14
-11 -14 -6 0 -9 -12 -7 -27 2 -20 9 -29 26 -31 20 -3 22 0 22 47 0 28 0 54 1
58 0 4 -5 9 -13 11 -9 2 -8 0 2 -7z"/>
<path d="M3522 1428 l3 -133 25 3 c14 2 26 5 28 7 2 1 0 58 -5 126 -8 119 -9
124 -31 127 l-23 3 3 -133z"/>
<path d="M3668 1410 c4 -112 3 -120 -14 -121 -37 -1 18 -18 61 -18 32 0 36 2
23 10 -16 9 -18 26 -18 129 l0 120 -28 0 -28 0 4 -120z"/>
<path d="M3870 1519 c0 -5 5 -7 10 -4 6 3 10 8 10 11 0 2 -4 4 -10 4 -5 0 -10
-5 -10 -11z"/>
<path d="M4150 1471 c0 -5 13 -12 29 -16 17 -3 32 -14 34 -23 4 -16 5 -16 6 0
0 9 -6 24 -15 32 -17 17 -54 22 -54 7z"/>
<path d="M2762 1329 l3 -44 84 -8 c46 -4 86 -6 87 -4 2 2 1 19 -2 39 -7 39 -7
39 -122 54 l-53 7 3 -44z"/>
<path d="M2970 1311 c0 -45 9 -51 81 -51 51 0 63 12 29 30 -11 6 -20 7 -20 2
0 -6 -9 -12 -20 -15 -15 -4 -22 1 -26 19 -3 13 -4 31 0 39 4 11 -1 15 -19 15
-22 0 -25 -4 -25 -39z"/>
<path d="M3120 1311 c0 -52 8 -61 55 -61 43 0 43 0 38 33 -6 40 -9 43 -55 51
-37 7 -38 6 -38 -23z"/>
<path d="M3240 1280 c0 -39 1 -40 35 -40 34 0 35 1 35 40 0 39 -1 40 -35 40
-34 0 -35 -1 -35 -40z"/>
<path d="M3340 1276 c0 -43 23 -56 96 -56 43 0 44 1 44 34 0 32 -1 33 -47 39
-27 4 -58 9 -70 13 -21 6 -23 3 -23 -30z"/>
<path d="M3503 1274 c-3 -8 -2 -25 1 -39 6 -23 11 -25 69 -25 l64 0 -5 29 c-3
23 -11 30 -35 36 -57 14 -88 13 -94 -1z"/>
<path d="M3662 1235 c3 -28 6 -30 51 -33 49 -3 51 -2 41 35 -5 17 -15 22 -50
25 -45 3 -45 3 -42 -27z"/>
<path d="M3811 1224 c0 -11 3 -14 6 -6 3 7 2 16 -1 19 -3 4 -6 -2 -5 -13z"/>
<path d="M4050 1207 c0 -17 42 -40 62 -35 12 2 13 9 7 26 -6 16 -16 22 -39 22
-18 0 -30 -5 -30 -13z"/>
</g>
</svg>
