<?xml version="1.0" standalone="no"?>
<!DOCTYPE svg PUBLIC "-//W3C//DTD SVG 20010904//EN"
 "http://www.w3.org/TR/2001/REC-SVG-20010904/DTD/svg10.dtd">
<svg version="1.0" xmlns="http://www.w3.org/2000/svg"
 width="456.000000pt" height="456.000000pt" viewBox="0 0 456.000000 456.000000"
 preserveAspectRatio="xMidYMid meet">
<metadata>
Created by potrace 1.11, written by Peter Selinger 2001-2013
</metadata>
<g transform="translate(0.000000,456.000000) scale(0.100000,-0.100000)"
fill="#000000" stroke="none">
<path d="M299 4517 c-4 -67 0 -4479 4 -4483 3 -3 29 2 59 11 29 9 67 19 83 22
17 3 37 9 46 14 9 4 27 10 40 13 13 2 80 21 149 41 69 20 132 38 140 40 8 2
96 27 195 56 99 28 187 53 195 54 8 2 16 4 18 5 1 2 5 3 10 5 4 1 19 5 33 9
14 4 32 9 40 10 8 2 21 6 29 9 18 7 164 48 255 71 6 2 17 6 25 9 8 3 51 15 95
27 92 25 97 27 107 29 4 1 26 8 49 16 23 9 51 17 63 20 45 10 152 41 161 47
19 12 101 1 230 -32 72 -17 139 -34 149 -36 10 -2 33 -8 50 -13 17 -6 45 -12
61 -15 45 -8 207 -46 215 -51 3 -2 17 -6 31 -8 13 -3 101 -24 194 -47 94 -23
181 -44 195 -47 39 -8 44 -9 65 -16 11 -3 31 -8 45 -11 14 -2 84 -19 155 -36
72 -18 139 -34 149 -36 10 -2 33 -8 50 -13 17 -6 45 -12 61 -15 17 -3 66 -15
110 -26 44 -11 94 -23 110 -26 17 -3 44 -9 61 -15 17 -5 40 -11 50 -14 10 -2
57 -13 104 -24 47 -12 88 -21 93 -21 4 0 7 1006 7 2235 0 2001 -2 2235 -15
2235 -9 0 -31 -7 -50 -14 -19 -8 -35 -13 -35 -11 0 2 -38 -9 -85 -25 -47 -16
-85 -26 -85 -23 0 3 -6 1 -12 -4 -11 -9 -43 -19 -75 -25 -5 0 -46 -14 -93 -30
-47 -15 -86 -28 -88 -28 -4 2 -174 -50 -202 -61 -14 -5 -35 -11 -48 -14 -13
-2 -72 -19 -130 -38 -159 -50 -254 -79 -266 -81 -6 -1 -15 -4 -21 -7 -10 -6
-101 -33 -125 -37 -3 -1 -32 -11 -65 -22 -33 -11 -62 -21 -65 -22 -3 0 -15 -4
-28 -9 -13 -5 -27 -9 -31 -9 -5 0 -53 -14 -107 -31 -55 -17 -106 -32 -114 -34
-23 -5 -210 -65 -253 -81 -20 -7 -37 -12 -37 -10 0 2 -24 -5 -52 -14 -51 -16
-55 -16 -108 1 -30 11 -64 24 -75 30 -12 5 -27 11 -35 13 -8 2 -28 8 -43 14
-16 7 -30 12 -32 12 -2 0 -16 5 -32 12 -15 6 -37 13 -47 15 -11 2 -25 8 -31
13 -6 5 -20 11 -31 13 -10 1 -23 5 -29 8 -5 4 -41 17 -80 29 -38 12 -74 25
-80 29 -5 3 -19 7 -29 8 -11 2 -25 8 -33 14 -7 6 -13 8 -13 4 0 -4 -6 -3 -12
2 -7 6 -38 18 -68 28 -30 10 -59 21 -65 26 -5 5 -18 9 -30 9 -12 0 -25 4 -30
9 -6 5 -41 19 -80 31 -38 13 -74 25 -80 29 -5 3 -17 6 -25 8 -8 1 -23 6 -35
12 -11 5 -60 24 -110 41 -49 17 -108 38 -130 47 -22 8 -76 28 -120 43 -80 28
-116 42 -275 100 -125 47 -140 50 -141 37z"/>
</g>
</svg>
